# xmcd
#
# Track frame offsets:
#	150
#	16265
#	29147
#	43627
#	55912
#	67547
#	85225
#	97727
#	115012
#	127592
#	139480
#	152002
#	165397
#	179047
#	193975
#	204250
#
# Disc length: 2841
#
# Revision: 2
# Processed by: cddbd v1.5.1PL0 Copyright (c) Steve Scherf et al.
# Submitted via: EasyCDDAExtractor 5.1.0
# Normalized: r1:DSETVAR1
#
DISCID=cd0b1710
DTITLE=Various Artist - That's Country - CD3
DYEAR=1900
DGENRE=country
TTITLE0=Willie Nelson - Angel Flying Too Close To The Ground
TTITLE1=Charlie Rich - The Most Beautiful Girl
TTITLE2=Loretta Lynn - Coal Miner's Daughter
TTITLE3=Merle Haggard - If We Make It Through December
TTITLE4=Bob Wills and His Texas Playboys - New San Antonio Rose
TTITLE5=Bobby Goldsboro - Honey
TTITLE6=George Jones - A Girl I Used To Know
TTITLE7=Kris Kristofferson - Casey's Last Ride
TTITLE8=Alabama - I Go On Loving You
TTITLE9=Skeeter Davis - The End Of The World
TTITLE10=Hank Williams - Honky Tonkin'
TTITLE11=Johnny Cash - I walk The Line
TTITLE12=Bill Monroe and His Blue Grass Boys - Blue Moon Of Kentucky
TTITLE13=Boxcar Willie - Train Medley - Seven
TTITLE14=Buck Owens - Rollin' In My Sweet Baby's Arms
TTITLE15=Patsy Cline - I Fall To Pieces
EXTD=
EXTT0=
EXTT1=
EXTT2=
EXTT3=
EXTT4=
EXTT5=
EXTT6=
EXTT7=
EXTT8=
EXTT9=
EXTT10=
EXTT11=
EXTT12=
EXTT13=
EXTT14=
EXTT15=
PLAYORDER=
